<svg id="_44583e6e-3c87-4cd0-878b-9f64620e8dae" data-name="44583e6e-3c87-4cd0-878b-9f64620e8dae" xmlns="http://www.w3.org/2000/svg" xmlns:xlink="http://www.w3.org/1999/xlink" viewBox="0 0 1009.52 839.61"><defs><linearGradient id="linear-gradient" x1="377.98" y1="147.14" x2="377.98" y2="146.88" gradientTransform="translate(-95.23 297.82)" gradientUnits="userSpaceOnUse"><stop offset="0" stop-color="gray" stop-opacity="0.25"/><stop offset="0.54" stop-color="gray" stop-opacity="0.12"/><stop offset="1" stop-color="gray" stop-opacity="0.1"/></linearGradient><linearGradient id="linear-gradient-2" x1="362.65" y1="284.74" x2="362.65" y2="-111.81" xlink:href="#linear-gradient"/></defs><title>page4</title><path d="M586.6,111.4c-64.7-2.2-126.4-23.1-185.2-46S284.2,17.2,221,5.1C180.4-2.7,133.9-3.8,101.2,18,69.7,39,59.5,75.1,54,108.7c-4.1,25.3-6.5,51.9,4.7,75.5,7.8,16.4,21.7,30.2,31.4,46,33.5,54.7,9.8,122.2-26.4,175.6-17,25.1-36.8,49-49.9,75.7S-5.4,538.7,6.1,566c11.4,27,38.5,47.2,67.9,61.5,59.7,29,130,37.2,198.6,41.9,151.8,10.4,304.5,5.9,456.7,1.4,56.3-1.7,112.9-3.4,168.3-12.1,30.8-4.8,62.6-12.5,84.9-31,28.4-23.5,35.4-63.4,16.4-92.9C967,485.3,878.9,473,856.6,419.9c-12.3-29.2.3-61.8,18.2-88.9C913,272.8,977.1,221.8,980.5,155.3c2.3-45.7-28.5-91.4-76.1-113C854.5,19.7,785.2,22.5,748.4,60,710.4,98.5,643.7,113.4,586.6,111.4Z" transform="translate(-0.03 0.01)" style="fill:#fff;opacity:0.10000000149011612;isolation:isolate"/><ellipse cx="483.47" cy="781.01" rx="304" ry="41.1" style="fill:#fff;opacity:0.20000000298023224;isolation:isolate"/><path d="M645.1,289.8h4.3a2.26,2.26,0,0,1,2.3,2.3v68.4a2.26,2.26,0,0,1-2.3,2.3h-4.3a2.26,2.26,0,0,1-2.3-2.3V292.1A2.26,2.26,0,0,1,645.1,289.8Z" transform="translate(-0.03 0.01)" style="fill:#3a3768"/><path d="M350.7,232.6h.4a2.26,2.26,0,0,1,2.3,2.3v19.5a2.26,2.26,0,0,1-2.3,2.3h-.4a2.26,2.26,0,0,1-2.3-2.3V234.9A2.26,2.26,0,0,1,350.7,232.6Z" transform="translate(-0.03 0.01)" style="fill:#3a3768"/><path d="M350.5,276.6h1a2.26,2.26,0,0,1,2.3,2.3v37.3a2.26,2.26,0,0,1-2.3,2.3h-1a2.26,2.26,0,0,1-2.3-2.3V278.9A2.33,2.33,0,0,1,350.5,276.6Z" transform="translate(-0.03 0.01)" style="fill:#3a3768"/><path d="M350.6,333.1h.7a2.26,2.26,0,0,1,2.3,2.3V373a2.26,2.26,0,0,1-2.3,2.3h-.7a2.26,2.26,0,0,1-2.3-2.3V335.4A2.26,2.26,0,0,1,350.6,333.1Z" transform="translate(-0.03 0.01)" style="fill:#3a3768"/><path d="M390.2,153.2H608.6a39.05,39.05,0,0,1,39,39V716.6a39.05,39.05,0,0,1-39,39H390.2a39.05,39.05,0,0,1-39-39V192.2A38.92,38.92,0,0,1,390.2,153.2Z" transform="translate(-0.03 0.01)" style="fill:#3a3768"/><path d="M605.8,168.8h-34v4.1a19.42,19.42,0,0,1-19.4,19.4H444.2a19.42,19.42,0,0,1-19.4-19.4h0v-4.1H393a23.47,23.47,0,0,0-23.5,23.5h0v524A23.47,23.47,0,0,0,393,739.8H605.7a23.47,23.47,0,0,0,23.5-23.5V192.4a23.41,23.41,0,0,0-23.4-23.6Z" transform="translate(-0.03 0.01)" style="fill:#5d59db"/><path d="M474.7,171.2h33.6a3.9,3.9,0,0,1,3.9,3.9v.7a3.9,3.9,0,0,1-3.9,3.9H474.7a3.9,3.9,0,0,1-3.9-3.9V175A3.82,3.82,0,0,1,474.7,171.2Z" transform="translate(-0.03 0.01)" style="fill:#e6e8ec"/><circle cx="523.17" cy="175.41" r="4.8" style="fill:#e6e8ec"/><path d="M750.2,126.7s-84.2-5.1-74.3,53.9c0,0-2,10.4,7.5,15.2,0,0,.2-4.4,8.6-2.9a40.3,40.3,0,0,0,9.2.4,19.55,19.55,0,0,0,11.2-4.6h0s23.7-9.8,32.9-48.5c0,0,6.8-8.4,6.5-10.6l-14.2,6.1s4.9,10.2,1,18.8c0,0-.5-18.4-3.2-18-.5.1-7.4,3.6-7.4,3.6s8.3,17.9,2,30.8c0,0,2.4-22-4.7-29.5l-10,5.8s9.8,18.4,3.1,33.5c0,0,1.7-23.1-5.2-32.1l-9.1,7.1s9.2,18.2,3.6,30.6c0,0-.7-26.9-5.5-28.9,0,0-7.9,7-9.1,9.9,0,0,6.3,13.2,2.4,20.2,0,0-2.4-17.9-4.3-18,0,0-7.9,11.9-8.7,20,0,0,.3-12.1,6.8-21.1,0,0-7.6,1.3-12.1,6.3,0,0,1.2-8.4,14-9.1,0,0,6.5-9,8.3-9.5,0,0-12.7-1.1-20.5,2.4,0,0,6.8-7.9,22.8-4.3l9-7.3s-16.8-2.3-23.9.2c0,0,8.2-7,26.3-1.9l9.7-5.8s-14.3-3.1-22.8-2c0,0,9-4.9,25.7.4l7-3.1s-10.5-2.1-13.5-2.4-3.2-1.2-3.2-1.2a36.84,36.84,0,0,1,19.7,2.2C735.7,133.2,750.5,127.7,750.2,126.7Z" transform="translate(-0.03 0.01)" style="fill:#fff;opacity:0.25;isolation:isolate"/><path d="M663.8,100.5s-38-2.3-33.6,24.4a6.57,6.57,0,0,0,3.4,6.9s.1-2,3.9-1.3a19.1,19.1,0,0,0,4.1.2,8.34,8.34,0,0,0,5-2.1h0s10.7-4.4,14.9-21.9c0,0,3.1-3.8,3-4.8l-6.4,2.7s2.2,4.6.5,8.5c0,0-.2-8.3-1.4-8.1-.2,0-3.3,1.6-3.3,1.6s3.8,8.1.9,13.9c0,0,1.1-9.9-2.1-13.4l-4.5,2.7s4.4,8.3,1.4,15.1c0,0,.8-10.4-2.4-14.5l-4.1,3.2s4.1,8.2,1.6,13.9c0,0-.3-12.1-2.5-13.1,0,0-3.6,3.2-4.1,4.5,0,0,2.8,6,1.1,9.1,0,0-1.1-8.1-2-8.1,0,0-3.6,5.4-3.9,9a18.81,18.81,0,0,1,3.1-9.5,11.13,11.13,0,0,0-5.5,2.8s.6-3.8,6.3-4.1c0,0,3-4.1,3.7-4.3,0,0-5.8-.5-9.2,1.1,0,0,3.1-3.6,10.3-1.9l4-3.3s-7.6-1-10.8.1c0,0,3.7-3.2,11.9-.9l4.4-2.6s-6.5-1.4-10.3-.9c0,0,4.1-2.2,11.6.2l3.2-1.4s-4.7-.9-6.1-1.1-1.5-.5-1.5-.5a15.94,15.94,0,0,1,8.9,1C657.2,103.5,664,100.9,663.8,100.5Z" transform="translate(-0.03 0.01)" style="fill:#fff;opacity:0.25;isolation:isolate"/><ellipse cx="864.17" cy="773.31" rx="26.9" ry="4.5" style="fill:#fff;opacity:0.20000000298023224;isolation:isolate"/><ellipse cx="91.07" cy="810.71" rx="26.9" ry="4.5" style="fill:#fff;opacity:0.20000000298023224;isolation:isolate"/><ellipse cx="195.27" cy="835.11" rx="26.9" ry="4.5" style="fill:#fff;opacity:0.20000000298023224;isolation:isolate"/><ellipse cx="805.17" cy="822.11" rx="40.2" ry="6.8" style="fill:#fff;opacity:0.20000000298023224;isolation:isolate"/><path d="M821.9,811a11.38,11.38,0,0,0,3.8-5.8c.5-2.3-.5-5-2.7-5.9-2.5-.9-5.1.8-7.1,2.5s-4.3,3.7-6.9,3.3a10.34,10.34,0,0,0,3.2-9.8,4,4,0,0,0-.9-2c-1.4-1.5-3.8-.8-5.5.3-5.2,3.7-6.7,10.7-6.7,17.1-.5-2.3-.1-4.7-.1-7s-.7-5-2.6-6.2a7,7,0,0,0-4-.9c-2.3-.1-4.9.2-6.5,1.9-2,2.1-1.5,5.7.3,8s4.3,3.8,6.8,5.4a15.07,15.07,0,0,1,4.8,4.6c.1.3.3.5.4.8h14.6A43.51,43.51,0,0,0,821.9,811Z" transform="translate(-0.03 0.01)" style="fill:#fff;opacity:0.20000000298023224;isolation:isolate"/><path d="M196.6,723.3s5.5,7.2-2.5,18-14.6,20-12,26.8c0,0,12.1-20.2,22-20.4S207.5,735.4,196.6,723.3Z" transform="translate(-0.03 0.01)" style="fill:#fff;opacity:0.20000000298023224;isolation:isolate"/><path d="M196.6,723.3a7,7,0,0,1,1.1,2.3c9.6,11.3,14.8,21.8,5.5,22.1-8.6.2-18.9,15.7-21.4,19.5l.3.9s12.1-20.2,22-20.4S207.5,735.4,196.6,723.3Z" transform="translate(-0.03 0.01)" style="fill:#fff;opacity:0.20000000298023224;isolation:isolate"/><path d="M206.9,732.4c0,2.5-.3,4.6-.6,4.6s-.6-2-.6-4.6.4-1.3.7-1.3S206.9,729.9,206.9,732.4Z" transform="translate(-0.03 0.01)" style="fill:#ffd037"/><path d="M210.4,735.5c-2.2,1.2-4.2,1.9-4.3,1.6s1.5-1.5,3.7-2.8,1.4-.3,1.5,0S212.6,734.2,210.4,735.5Z" transform="translate(-0.03 0.01)" style="fill:#ffd037"/><path d="M167.6,723.3s-5.5,7.2,2.5,18,14.6,20,12,26.8c0,0-12.1-20.2-22-20.4S156.8,735.4,167.6,723.3Z" transform="translate(-0.03 0.01)" style="fill:#fff;opacity:0.20000000298023224;isolation:isolate"/><path d="M167.6,723.3a7,7,0,0,0-1.1,2.3c-9.6,11.3-14.7,21.8-5.5,22.1,8.6.2,19,15.7,21.4,19.5l-.3.9s-12.1-20.2-22-20.4S156.8,735.4,167.6,723.3Z" transform="translate(-0.03 0.01)" style="fill:#fff;opacity:0.20000000298023224;isolation:isolate"/><path d="M157.4,732.4c0,2.5.3,4.6.6,4.6s.6-2,.6-4.6-.4-1.3-.7-1.3S157.4,729.9,157.4,732.4Z" transform="translate(-0.03 0.01)" style="fill:#ffd037"/><path d="M153.9,735.5c2.2,1.2,4.1,1.9,4.3,1.6s-1.5-1.5-3.7-2.8-1.3-.3-1.5,0S151.7,734.2,153.9,735.5Z" transform="translate(-0.03 0.01)" style="fill:#ffd037"/><path d="M159.2,767.1s15.4-.5,20-3.8,23.6-7.2,24.8-2,23.1,26.3,5.8,26.4-40.3-2.7-44.9-5.5S159.2,767.1,159.2,767.1Z" transform="translate(-0.03 0.01)" style="fill:#fff;opacity:0.15000000596046448;isolation:isolate"/><path d="M210,786c-17.3.1-40.3-2.7-44.9-5.5-3.5-2.2-4.9-9.8-5.4-13.4h-.5s1,12.4,5.6,15.2,27.6,5.7,44.9,5.5c5,0,6.7-1.8,6.6-4.5C215.6,785,213.7,786,210,786Z" transform="translate(-0.03 0.01)" style="fill:#fff;opacity:0.10000000149011612;isolation:isolate"/><path d="M282.2,444.7a.9.9,0,0,0,1.1.1A4.49,4.49,0,0,1,282.2,444.7Z" transform="translate(-0.03 0.01)" style="fill:url(#linear-gradient)"/><path d="M402.1,245.7c-2.1-.6-5.1-1.6-8.7-2.9a46.25,46.25,0,0,0,8.1-16.5l-.3.1c.1-.4.2-.7.3-1.1-6.9,2.9-14.6-2-19.5-8.2s-8.2-13.9-13.6-19.7a54.16,54.16,0,0,0-7.2-6.3c-1.6-1.2-3.3-2.5-5.2-2.6-3.1-.1-5.6,3-8.6,3.9a11.1,11.1,0,0,1-6-.2c-7.8-1.8-15.3-5.1-23.1-6a28.56,28.56,0,0,0-12.6,1.4c-4,1.5-5.8,4.6-9,7-3.5,2.6-10.4,2.6-14.5,3a93.34,93.34,0,0,1-14.9.6,30.89,30.89,0,0,0-8.6.3c-5.9,1.3-10.7,6.1-15.2,10.7a8,8,0,0,0-2.5,4,2.85,2.85,0,0,0,0,1.3,10.3,10.3,0,0,0,.6,3.5,47,47,0,0,0,5.7,11.7c1.8,2.6,3.9,5.1,5,8.2a15.1,15.1,0,0,1,.8,4.8,44,44,0,0,1-.5,5.1,64.11,64.11,0,0,1-3.9,13.6c-.9,2.3-2,4.6-2.2,7.2v1.5c-.3,7.8,7.5,13.5,9,21.3a12.31,12.31,0,0,1,.2,2c-.2,4.9-2.9,9.6-6.9,11.5.4.1.7.3,1.1.4a10.91,10.91,0,0,1-1.1.6,18.66,18.66,0,0,0,2.2.7,50.61,50.61,0,0,0-11.4,14.2c-13.5,25.5-105.2,75.6-105.2,75.6s.5.3,1.4.8a10.54,10.54,0,0,1-1.1.7c-7.9,5.4-26.6,21-9.7,40.7,0,0,13.2-21,22.4-30a12,12,0,0,1,1.2-1.1,3.25,3.25,0,0,1,.4,2.2l60.3-34.4s21.4-15.2,27.4-18.7c2.1-1.2,7.3-4.5,13.6-5.9l-.7.3a27.4,27.4,0,0,1,6.9-1c10.7.2,22.2,8.1,26.1,39.5,5.1,42.1,2.7,49.6,1.1,50.7-.2,0-.4-.1-.6-.1a.35.35,0,0,0,.2.1c-.2,0-.4-.1-.7-.1a1,1,0,0,0,.9.2.88.88,0,0,0,.7-.1h.8c0,.4-.1.8-.1,1.2-.1,0-.5.2,0,.3h0c-.1,2.4-.1,5,0,7.6-5.3.3-10.6.6-15.3.9l.4-2.2.2-1c4.1-.3,7.9-1.5,8.4-4.9,1-7.4-9-11.3-17.5-11.8s-59.3,3-59.3,3-7.6,10,16.6,13.1c.7.4,1.5.8,2.2,1.2,9.5,5.5,22.3,15.6,28.5,20.5l.9.7-2.8,2.2c15,3.4,29.4,61.4,37.4,87.9s25.4,25.5,39.9,21.6c13.5-3.7,15.3-43.6,15.4-48.6v-.5L364,561.5l1.8,2.3a20,20,0,0,0,2.1,1c18.2,8.8,38.4-8.1,32.7-27.3-5.8-19.4-14.8-48.1-20.8-60.2-5-10.1-11.5-27-15.5-37.6.5-.2,1-.5,1.5-.7,0,0-.1-.5-.2-1.3l.2-.1s-5.8-30.5-6.1-52.2v-1.8c4.4-1,7.1-1.4,7.1-1.4l.1-.9-.5.1,2.4-28.1s8.9-19.2,2.1-27.2a16.16,16.16,0,0,1-4-8.3c-1.1-7.4,0-19.6,15.9-29.8,24.4-15.7,33.9-28.5,33.9-28.5S417,250.1,402.1,245.7Zm-48.6,19.5v-13c4.5-.2,9.2.3,13.7,0a36.39,36.39,0,0,0,6.6-1.1l1.1.8A117.78,117.78,0,0,1,353.5,265.2ZM284.3,469l5.4,3.9c1.1,6.4,2.1,10.9,2.1,11.2A96.48,96.48,0,0,0,284.3,469Z" transform="translate(-0.03 0.01)" style="fill:url(#linear-gradient-2)"/><path d="M323.4,460.8l-1.1,5.9-.8,4.5-1.5,8.2-14.6,10.3s-1.3-1.1-3.5-2.9c-6-4.9-18.6-15-27.9-20.4a31.46,31.46,0,0,0-7.7-3.5Z" transform="translate(-0.03 0.01)" style="fill:#ffbdc6"/><path d="M323.4,460.8l-1.1,5.9a45.11,45.11,0,0,1-9.7-.5l-34.2.5c-1.6-.1-3.1-.2-4.5-.4a31.46,31.46,0,0,0-7.7-3.5Z" transform="translate(-0.03 0.01)" style="opacity:0.10000000149011612;isolation:isolate"/><path d="M312.7,465.2s17.1,2.9,18.1-4.4-8.8-11.2-17.1-11.7-58.1,2.9-58.1,2.9-8.8,11.7,22.9,13.7Z" transform="translate(-0.03 0.01)" style="fill:#474463"/><path d="M323.4,460.8l-1.1,5.9-.8,4.5-1.5,8.2-14.6,10.3s-1.3-1.1-3.5-2.9c-6-4.9-18.6-15-27.9-20.4a31.46,31.46,0,0,0-7.7-3.5Z" transform="translate(-0.03 0.01)" style="opacity:0.10000000149011612;isolation:isolate"/><path d="M323.4,460.8l-1.1,5.9a45.11,45.11,0,0,1-9.7-.5l-34.2.5c-1.6-.1-3.1-.2-4.5-.4a31.46,31.46,0,0,0-7.7-3.5Z" transform="translate(-0.03 0.01)" style="opacity:0.10000000149011612;isolation:isolate"/><path d="M312.7,465.2s17.1,2.9,18.1-4.4-8.8-11.2-17.1-11.7-58.1,2.9-58.1,2.9-8.8,11.7,22.9,13.7Z" transform="translate(-0.03 0.01)" style="opacity:0.10000000149011612;isolation:isolate"/><rect x="260.67" y="224.61" width="89.3" height="105.9" style="fill:#474463"/><rect x="260.67" y="225.11" width="89.3" height="105.9" style="opacity:0.10000000149011612;isolation:isolate"/><path d="M156.1,405.9c-1.5.4-3.4,1.8-5.4,3.9-9,8.9-21.9,29.8-21.9,29.8-16.5-19.6,1.8-35.1,9.5-40.5,1.9-1.3,3.2-2,3.2-2Z" transform="translate(-0.03 0.01)" style="fill:#ffbdc6"/><path d="M322.5,258s4.4,30.7,19.5,38.1-19.5,21-19.5,21l-47.3-17.6s26.8-8.8,21.5-34.6Z" transform="translate(-0.03 0.01)" style="fill:#ffbdc6"/><path d="M271.7,443l-1.1,5.8-.9,4.5-1.5,8.2-14.6,10.2s-1.3-1.1-3.5-2.9c-6-4.9-18.6-15-27.9-20.4a31.46,31.46,0,0,0-7.7-3.5Z" transform="translate(-0.03 0.01)" style="fill:#ffbdc6"/><path d="M271.7,443l-1.1,5.8a45.11,45.11,0,0,1-9.7-.5l-34.2.5c-1.6-.1-3.1-.2-4.5-.4a31.46,31.46,0,0,0-7.7-3.5Z" transform="translate(-0.03 0.01)" style="opacity:0.10000000149011612;isolation:isolate"/><path d="M261,447.4s17.1,2.9,18-4.4-8.8-11.2-17.1-11.7-58.1,2.9-58.1,2.9-8.8,11.7,22.9,13.7Z" transform="translate(-0.03 0.01)" style="fill:#474463"/><path d="M269.8,453.3l-1.5,8.2-14.6,10.2s-1.3-1.1-3.5-2.9l19.4-15.9Z" transform="translate(-0.03 0.01)" style="opacity:0.10000000149011612;isolation:isolate"/><path d="M366.5,565c-.7-.3-1.3-.7-2-1l-1.8-2.3L339,531.8v.5c-.2,5-1.9,44.6-15.1,48.3-14.1,3.9-31.2,4.9-39-21.5s-22-83.9-36.6-87.4L270,454s14.4,16.8,20.2,32.9c-.2-1-10.1-47.4-2-55.6h71.2s11,31.3,18.5,46.9c5.9,12.1,14.7,40.5,20.4,59.8C404,557,384.3,573.8,366.5,565Z" transform="translate(-0.03 0.01)" style="fill:#474463"/><path d="M364.4,440.1c-11,6.5-59.3,3.9-75,2.8l-4.3-.3c-.5,0,.1-.3.1-.3l.4-4.4,11.7-29.8L360,371.7c-1.3,3.8-1.7,9.7-1.6,16.4C358.8,409.7,364.4,440.1,364.4,440.1Z" transform="translate(-0.03 0.01)" style="opacity:0.10000000149011612;isolation:isolate"/><path d="M364.4,438.6c-11,6.5-59.3,3.9-75,2.8l-4.3-.3-.7-.1.8-.2,3.9-1,8.3-33.2,62.7-36.4c-1.3,3.8-1.7,9.7-1.6,16.4C358.8,408.2,364.4,438.6,364.4,438.6Z" transform="translate(-0.03 0.01)" style="fill:#f2f1f2"/><path d="M358.4,386.7c-12.8,2.9-40.8,11.6-51.6,32.4-7.2,13.9-13.2,19.8-17.5,22.3l-4.3-.3c0-.1.1-.2.1-.3l3.9-1,8.3-33.2L360,370.2C358.8,374.1,358.3,380,358.4,386.7Z" transform="translate(-0.03 0.01)" style="opacity:0.10000000149011612;isolation:isolate"/><path d="M141.4,397.1l14.6,8.8c-1.5.4-3.4,1.8-5.4,3.9-1.2-3.6-8.9-8.5-12.4-10.6C140.2,397.8,141.4,397.1,141.4,397.1Z" transform="translate(-0.03 0.01)" style="opacity:0.10000000149011612;isolation:isolate"/><path d="M282.5,441.6a.92.92,0,0,1-1-.1A1.73,1.73,0,0,0,282.5,441.6Z" transform="translate(-0.03 0.01)" style="opacity:0.10000000149011612;isolation:isolate"/><path d="M315.6,294.1s-13.2,1.5-22.5-8.3c0,0-39,11.2-52.2,36.6s-103,75.1-103,75.1,15.6,8.8,14.1,13.2l59-34.2s21-15.1,26.8-18.5,38.1-24.4,44.9,32.7,0,50.3,0,50.3,9.8,3.4,23.9-23.9,58.1-33.7,58.1-33.7l2.4-28.8s8.7-19.1,2-27a16.83,16.83,0,0,1-3.9-8.3c-1.1-7.3,0-19.5,15.5-29.6,23.9-15.6,33.2-28.3,33.2-28.3s.5-9.3-14.1-13.7-74.2-28.3-74.2-28.3l-2,8.3,47,33.2s-23.4,19-42,18.5C328.8,279.5,332.2,293.7,315.6,294.1Z" transform="translate(-0.03 0.01)" style="fill:#ff487e"/><path d="M324.7,271.4a81.85,81.85,0,0,1-2.7-11.9l-25.9,6.8a29,29,0,0,1-.6,14.9,27.78,27.78,0,0,0,29.2-9.8Z" transform="translate(-0.03 0.01)" style="opacity:0.10000000149011612;isolation:isolate"/><circle cx="303.17" cy="252.91" r="27.8" style="fill:#ffbdc6"/><path d="M318,189.7c7.7.9,15,4.2,22.6,6a10.74,10.74,0,0,0,5.9.2c3-.9,5.4-4,8.4-3.9,1.9,0,3.5,1.3,5.1,2.6a68.91,68.91,0,0,1,7,6.2c5.2,5.7,8.5,13.4,13.3,19.5s12.3,11,19.1,8.2c-4.6,18-19.8,31.7-36.1,32.8-6.5.4-13.2-.9-19.5,1a20.65,20.65,0,0,1-4.9,1.2c-3.6,0-6.6-3.3-8.8-6.6-5.3-7.6-9.5-16.3-15.5-23.3-2-2.3-4.3-4.5-7.1-4.9s-5.4.9-7.9,2.2c-4.1,2.1-8.3,4.3-11.5,8s-5.2,9.1-3.9,14c.7,2.7,2.3,5.1,2.4,7.8.1,4.4-3.9,7.7-4.6,12a49.64,49.64,0,0,0-.2,5.5c-.3,5.9-4.2,10.8-8.2,14.5-1.6,1.5-3.3,3-3.8,5.2-.3,1.5,0,3.1-.2,4.7-.6,3.8-4.4,5.8-7.8,6.3a22.22,22.22,0,0,1-11.7-1.4c4.7-2.2,7.7-8.6,6.6-14.3-1.5-7.9-9.5-13.6-8.8-21.7a24.46,24.46,0,0,1,2.2-7.1,71.4,71.4,0,0,0,3.8-13.5c.6-3.6.9-7.4-.2-10.8-1-3.1-3.1-5.6-4.9-8.2a47.07,47.07,0,0,1-5.6-11.5,7.06,7.06,0,0,1-.5-3.8,7.41,7.41,0,0,1,2.5-4c4.4-4.6,9-9.3,14.8-10.6a29.61,29.61,0,0,1,8.4-.3,88.74,88.74,0,0,0,14.6-.6c4-.5,10.8-.4,14.1-3,3.2-2.4,4.9-5.5,8.8-7A23.47,23.47,0,0,1,318,189.7Z" transform="translate(-0.03 0.01)" style="opacity:0.10000000149011612;isolation:isolate"/><path d="M333.4,476.9s16.1,31.7,11.2,41.5" transform="translate(-0.03 0.01)" style="opacity:0.10000000149011612;isolation:isolate"/><path d="M362.6,561.7,339,531.8v.5s-1.4-9.7,3.1-6.4c9.8,7.1,25.6,18.8,25.9,20.8S364.9,556.8,362.6,561.7Z" transform="translate(-0.03 0.01)" style="opacity:0.10000000149011612;isolation:isolate"/><g style="opacity:0.10000000149011612"><path d="M329.3,279.5s2,8.2-4.4,12.4c9.9-1.7,10.3-9.4,10-12.8A35.17,35.17,0,0,1,329.3,279.5Z" transform="translate(-0.03 0.01)"/><path d="M143.9,395.6s89.8-49.8,103-75.1c9.5-18.2,32.2-29.1,44.3-33.9-8.8,3-38.5,14.3-49.7,35.8-13.2,25.4-103,75.1-103,75.1Z" transform="translate(-0.03 0.01)"/><path d="M346.8,275.6c15.3-4.8,29.9-16.6,29.9-16.6l-46.9-33.2,1.1-4.5-4.5-1.8-2,8.3L371.3,261A115,115,0,0,1,346.8,275.6Z" transform="translate(-0.03 0.01)"/><path d="M347,388.1a115.17,115.17,0,0,1,18.4-4.6l.1-.9A109.14,109.14,0,0,0,347,388.1Z" transform="translate(-0.03 0.01)"/><path d="M290.3,439.2h-.4a.92.92,0,0,1-1-.1,3.4,3.4,0,0,0,1,.1c1.6-.9,4-8.2-1-50.4-5.4-45-26.5-41.5-38.1-36.3,11.8-3.3,28.1-.4,32.8,38.3,5,42.2,2.6,49.5,1,50.4A11.22,11.22,0,0,0,290.3,439.2Z" transform="translate(-0.03 0.01)"/><path d="M284.5,441.2a3.4,3.4,0,0,1-1-.1A1.1,1.1,0,0,0,284.5,441.2Z" transform="translate(-0.03 0.01)"/></g><path d="M318,188.7c7.7.9,15,4.2,22.6,6a10.74,10.74,0,0,0,5.9.2c3-.9,5.4-4,8.4-3.9,1.9.1,3.5,1.3,5.1,2.6a68.91,68.91,0,0,1,7,6.2c5.2,5.7,8.5,13.4,13.3,19.5s12.3,11,19.1,8.2c-4.6,18-19.8,31.7-36.1,32.8-6.5.5-13.2-.9-19.5,1a20.65,20.65,0,0,1-4.9,1.2c-3.6,0-6.6-3.3-8.8-6.6-5.3-7.6-9.5-16.3-15.5-23.3-2-2.3-4.3-4.5-7.1-4.9s-5.4.9-7.9,2.2c-4.1,2.1-8.3,4.3-11.5,8s-5.2,9.1-3.9,14c.7,2.7,2.3,5.1,2.4,7.8.1,4.4-3.9,7.7-4.6,12a49.64,49.64,0,0,0-.2,5.5c-.3,5.9-4.2,10.8-8.2,14.5-1.6,1.4-3.3,3-3.8,5.2-.3,1.5,0,3.1-.2,4.7-.6,3.8-4.4,5.8-7.8,6.3a22.22,22.22,0,0,1-11.7-1.4c4.7-2.2,7.7-8.6,6.6-14.3-1.5-7.9-9.5-13.6-8.8-21.7a24.46,24.46,0,0,1,2.2-7.1,71.4,71.4,0,0,0,3.8-13.5c.6-3.6.9-7.4-.2-10.8-1-3.1-3.1-5.6-4.9-8.2a45.38,45.38,0,0,1-5.6-11.5,7.06,7.06,0,0,1-.5-3.8,8.5,8.5,0,0,1,2.5-4c4.4-4.6,9-9.3,14.8-10.6a29.61,29.61,0,0,1,8.4-.3,101.3,101.3,0,0,0,14.6-.6c4-.5,10.8-.4,14.1-3,3.2-2.4,4.9-5.5,8.8-7A24.57,24.57,0,0,1,318,188.7Z" transform="translate(-0.03 0.01)" style="fill:#474463"/><circle cx="501.17" cy="461.81" r="56.1" style="fill:#fff"/><path d="M574.9,454.4a75,75,0,1,1-75-74.9,74.92,74.92,0,0,1,75,74.9ZM491.3,494l55.6-55.6a4.77,4.77,0,0,0,0-6.8h0l-6.8-6.8a4.77,4.77,0,0,0-6.8,0h0L488,470.1l-21.2-21.2a4.77,4.77,0,0,0-6.8,0l-6.8,6.9a4.77,4.77,0,0,0,0,6.8L484.6,494a4.49,4.49,0,0,0,6.7,0Z" transform="translate(-0.03 0.01)" style="fill:#3acc6c"/></svg>