<svg id="vector" xmlns="http://www.w3.org/2000/svg" viewBox="0 0 820 725.17"><title>page2</title><path id="path" d="M426.16,0a350.3,350.3,0,1,0,247.7,102.6A350.42,350.42,0,0,0,426.16,0Z" style="fill:#f2f2f2;fill-opacity:0.10000000149011612"/><path id="path_1" data-name="path 1" d="M199.42,597.8C176.85,632.4,183,676.42,183,676.42s42.77-12.09,65.33-46.7,16.38-78.62,16.38-78.62S222,563.19,199.42,597.8Z" style="fill:#3f3d56"/><path id="path_2" data-name="path 2" d="M182.91,676s-.55-.09-1.56-.29c-.81-.16-1.92-.4-3.27-.72-12.12-2.86-44.34-12.52-65.41-37.92-26.37-31.8-25.26-76.23-25.26-76.23s40.32,6.55,66.88,35.11q1.73,1.84,3.36,3.82c22.94,27.67,25.08,64.9,25.25,74.11C182.93,675.27,182.91,676,182.91,676Z" style="fill:#ff487e"/><path id="path_3" data-name="path 3" d="M166.65,597.8C189.22,632.4,183,676.42,183,676.42s-42.77-12.09-65.33-46.7-16.38-78.62-16.38-78.62S144.09,563.19,166.65,597.8Z" style="fill:none;stroke:#3f3d56;stroke-miterlimit:10;stroke-width:2px"/><path id="path_4" data-name="path 4" d="M182.91,673.89c-.6.72-1.12,1.33-1.55,1.84-1,1.09-1.5,1.66-1.5,1.66s-.66-.83-1.77-2.38c-6.1-8.5-25.7-38.71-24.19-73.61q.12-2.74.4-5.43,1.73,1.84,3.36,3.82C180.6,627.45,182.74,664.68,182.91,673.89Z" style="fill-opacity:0.10000000149011612"/><path id="path_5" data-name="path 5" d="M216.37,603.92c-1.78,41.27-32.42,73.47-32.42,73.47s-27.75-34.72-26-76,32.42-73.47,32.42-73.47S218.15,562.64,216.37,603.92Z" style="fill:#ff487e"/><path id="path_6" data-name="path 6" d="M183.95,676.22l6.74-146.61" style="fill:none;stroke:#3f3d56;stroke-miterlimit:10;stroke-opacity:0.699999988079071;stroke-width:2px"/><path id="path_7" data-name="path 7" d="M410,658.23c-108.7,0-213.05,3.53-289.91,9.8S0,682.83,0,691.7s43.23,17.39,120.09,23.67,181.22,9.8,289.91,9.8,213.05-3.53,289.91-9.8S820,700.58,820,691.7,776.77,674.31,699.91,668,518.7,658.23,410,658.23Z" style="fill:#3f3d56"/><path id="path_8" data-name="path 8" d="M475.16,290.14c-10.22,3.45-19.48,11.53-21.58,22.11-1,4.91-.37,10-1.19,14.94-1.89,11.44-10.88,20.18-19.16,28.3S416.39,373,415.79,384.62c-.66,12.68,8.54,24.57,6.95,37.17-1.85,14.64-17.31,24.13-21.13,38.38-2.55,9.52.58,19.77,5.72,28.17,9.8,16,26.57,26.88,44.41,32.71s36.86,7.05,55.63,7.25c22.86.24,47.68-1.72,64.86-16.81a52,52,0,0,0,17.25-33.83c1.63-17.48-5.66-35.54-.63-52.35,3.17-10.58,11.11-20.25,9.92-31.23-1.16-10.74-10.54-18.35-17-27-6-8.1-9.65-17.67-13.23-27.1l-12.22-32.27c-2.4-6.34-5-13-10.4-17.18-10-7.79-26.15-6.26-37.87-4.65C497.2,287.35,485.62,286.61,475.16,290.14Z" style="fill:#2f2e41"/><path id="path_9" data-name="path 9" d="M479,384.14s5.42,17.61-35.22,37.93,4.06,42,4.06,42l47.42,10.84S544,468.13,549.44,460s14.9-35.22,12.19-39.29a63.42,63.42,0,0,0-6.77-8.13s-32.52-5.42-31.16-20.32S479,384.14,479,384.14Z" style="fill:#ffb9b9"/><path id="path_10" data-name="path 10" d="M479,384.14s5.42,17.61-35.22,37.93,4.06,42,4.06,42l47.42,10.84S544,468.13,549.44,460s14.9-35.22,12.19-39.29a63.42,63.42,0,0,0-6.77-8.13s-32.52-5.42-31.16-20.32S479,384.14,479,384.14Z" style="fill-opacity:0.10000000149011612"/><path id="path_11" data-name="path 11" d="M505.41,325.2a43.35,43.35,0,1,0,25.48,8.28A43.35,43.35,0,0,0,505.41,325.2Z" style="fill:#ffb9b9"/><path id="path_12" data-name="path 12" d="M500.67,460s-52.21-3.82-53.2-39.84c0,0-18.6-2.15-24,3.26s-23,9.48-23,23,29.8,54.19,29.8,54.19,16.26,54.19,9.48,63.67-8.13,33.87-8.13,33.87,67.74-5.42,78.58,0,54.19,5.42,56.9,0S564.34,525,564.34,525s12.19-16.26,9.48-35.22l32.51-37.93s-12.19-36.58-31.16-36.58c0,0-25.74-6.77-26.42-3.39S561.63,453.23,500.67,460Z" style="fill:#ff487e"/><path id="path_13" data-name="path 13" d="M378.74,579.22s12.19,19,43.35,23,36.58-6.77,33.87-9.48-35.22-14.9-35.22-14.9l-19-14.9ZM600.92,563,565.7,583.29s-46.06-2.71-28.45,10.84,50.13,8.13,50.13,8.13l31.16-14.9Z" style="fill:#ffb9b9"/><path id="path_14" data-name="path 14" d="M424.8,598.19s-32.52,79.93,6.77,92.13,147.67,9.48,172.06-6.77,31.16-37.93,27.09-44.71-31.16-25.74-50.13-27.1S424.8,598.19,424.8,598.19Z" style="fill:#2f2e41"/><path id="path_15" data-name="path 15" d="M424.8,598.19s-32.52,79.93,6.77,92.13,147.67,9.48,172.06-6.77,31.16-37.93,27.09-44.71-31.16-25.74-50.13-27.1S424.8,598.19,424.8,598.19Z" style="fill-opacity:0.10000000149011612"/><path id="path_16" data-name="path 16" d="M578.28,603.16S693,561.61,691.69,611.74s-73.16,63.67-73.16,63.67l-21.68,2.71-119.22,4.06s4.06-21.68-5.42-24.39c0,0,31.16-8.13,32.51-9.48s78.58-28.45,84-29.8,21.68-12.19,33.87-10.84c0,0,13.55-10.84,28.45-8.13l-42,2.71Z" style="fill:#2f2e41"/><path id="path_17" data-name="path 17" d="M578.28,603.16S693,561.61,691.69,611.74s-73.16,63.67-73.16,63.67l-21.68,2.71-119.22,4.06s4.06-21.68-5.42-24.39c0,0,31.16-8.13,32.51-9.48s78.58-28.45,84-29.8,21.68-12.19,33.87-10.84c0,0,13.55-10.84,28.45-8.13l-42,2.71Z" style="fill-opacity:0.10000000149011612"/><path id="path_18" data-name="path 18" d="M558,609.89l14.47,33,88.06-31.16,6.77-17.61-23-4.06L598,598.19l-20.08,5.42Z" style="fill:#2f2e41"/><path id="path_19" data-name="path 19" d="M558,609.89l14.47,33,88.06-31.16,6.77-17.61-23-4.06L598,598.19l-20.08,5.42Z" style="fill-opacity:0.10000000149011612"/><path id="path_20" data-name="path 20" d="M370.61,649.67s25.74,32.51,55.55,40.64,46.06-2.71,46.06-2.71l-9.48-37.93-4.06-24.39-17.61-12.19-35.22-16.26-42-13.55s-17.61-2.71-17.61,0,16.26,43.35,16.26,43.35Z" style="fill:#2f2e41"/><path id="path_21" data-name="path 21" d="M401.77,667.28s5.42,39.29,12.19,42,27.1-2.71,32.51-5.42,23.84-15.21,23.84-15.21S405.83,664.57,401.77,667.28Z" style="fill:#f2f2f2"/><path id="path_22" data-name="path 22" d="M525.05,671.35l25.74,4.06-2.71,31.16-35.9-8.72Z" style="fill:#ffb9b9"/><path id="path_23" data-name="path 23" d="M541.18,680s-12.06,14.36.13,22.49l8.13,6.77s27.1,5.42,29.8,8.13,13.55-4.06,13.55-4.06,1.35-40.64,0-43.35-17.61-5.42-19-2.71-17.61,6.77-27.1,4.06Z" style="fill:#f2f2f2"/><path id="path_24" data-name="path 24" d="M432.93,607.67s-94.83-55.55-109.74-35.22S292,621.22,335.38,642.9s178.83,66.38,178.83,66.38,20.32-31.16,20.32-39.29c0,0-71.8-32.51-84-35.22s-61-33.87-67.74-36.58-16.26-10.84-16.26-10.84Z" style="fill:#2f2e41"/><path id="path_25" data-name="path 25" d="M405.83,439.68l-5.42,4.07s-12.19,31.16-13.55,48.77-17.61,71.8-16.26,78.58,2.71,12.19,10.84,19c0,0,10.84-24.39,29.8-20.32l23-84Zm189.67,0,10.84,12.19s6.77,16.26,6.77,20.32,13.55,63.67,14.9,66.38,6.77,36.58,0,44.71-19,13.55-19,13.55,8.13-28.45-17.61-29.8l2.71-10.84-24.39-81.29Z" style="fill:#ff487e"/><path id="path_26" data-name="path 26" d="M408.54,533v71.36a17.16,17.16,0,0,0,16.9,17.15l149.24,2.21a17.16,17.16,0,0,0,17.4-16.49l2.74-71.37A17.16,17.16,0,0,0,577.93,518l-152-2.2A17.16,17.16,0,0,0,408.54,533Z" style="fill:#3f3d56"/><path id="path_27" data-name="path 27" d="M508,316.91c-12.37,0-24.25,2.65-33,7.36S461.29,335.38,461.29,342,466.2,355.1,475,359.81s20.63,7.36,33,7.36,24.25-2.65,33-7.36S554.61,348.7,554.61,342,549.7,329,540.95,324.27,520.32,316.91,508,316.91Z" style="fill:#2f2e41"/><path id="path_28" data-name="path 28" d="M500,559.58a10.84,10.84,0,1,0,7.66,3.18A10.84,10.84,0,0,0,500,559.58Z" style="fill:#f2f2f2"/><path id="path_29" data-name="path 29" d="M795,568.22V692c0,2.13-1.15,2.43-3,3.46-6.27,3.48-21.74,9.68-40.31-.13-1.91-1-3.08-1.35-3.08-3.5V569S772.19,578.53,795,568.22Z" style="fill:#2f2e41"/><path id="path_30" data-name="path 30" d="M771.79,563.21a83.57,83.57,0,0,0-16.4,1.44c-4.35.92-6.79,2.18-6.79,3.48s2.45,2.56,6.79,3.48a94,94,0,0,0,32.8,0c4.35-.92,6.79-2.18,6.79-3.48s-2.45-2.56-6.79-3.48A83.58,83.58,0,0,0,771.79,563.21Z" style="fill:#3f3d56;stroke:#6c63ff;stroke-miterlimit:10"/><g id="group"><path id="path_31" data-name="path 31" d="M792.88,619.1a.52.52,0,1,0,.37.15A.52.52,0,0,0,792.88,619.1Zm-2.64.74a.52.52,0,1,0,.37.15A.52.52,0,0,0,790.23,619.83Zm-3.26,1a.52.52,0,1,0,.37.15A.52.52,0,0,0,787,620.88Zm-5.85,1.26a.52.52,0,1,0,.37.15A.52.52,0,0,0,781.12,622.14Zm-6.17.75a.52.52,0,1,0,.37.15A.52.52,0,0,0,774.95,622.88Zm-6.39.29a.52.52,0,1,0,.37.15A.52.52,0,0,0,768.56,623.18Zm-9.17-1.26a.52.52,0,1,0,.37.15A.52.52,0,0,0,759.38,621.92Zm3,.74a.52.52,0,1,0,.37.15A.52.52,0,0,0,762.42,622.66Zm-8.72-1.78a.52.52,0,1,0,.37.15A.52.52,0,0,0,753.71,620.88Zm2.73.52a.52.52,0,1,0,.37.15A.52.52,0,0,0,756.44,621.4Zm-5.73-1.56a.52.52,0,1,0,.37.15A.52.52,0,0,0,750.71,619.83ZM784,621.62a.52.52,0,1,0,.37.15A.52.52,0,0,0,784,621.62Zm-6,1a.52.52,0,1,0,.37.15A.52.52,0,0,0,777.94,622.66Zm-6.55.52a.52.52,0,1,0,.37.15A.52.52,0,0,0,771.39,623.18Zm-6,0a.52.52,0,1,0,.37.15A.52.52,0,0,0,765.43,623.18Z"/></g><g id="group_1" data-name="group 1"><path id="path_32" data-name="path 32" d="M792.88,621.66a.52.52,0,1,0,.37.15A.52.52,0,0,0,792.88,621.66Zm-2.64.74a.52.52,0,1,0,.37.15A.52.52,0,0,0,790.23,622.4Zm-3.26,1a.52.52,0,1,0,.37.15A.52.52,0,0,0,787,623.44Zm-5.85,1.26a.52.52,0,1,0,.37.15A.52.52,0,0,0,781.12,624.7Zm-6.17.75a.52.52,0,1,0,.37.15A.52.52,0,0,0,774.95,625.44Zm-6.39.29a.52.52,0,1,0,.37.15A.52.52,0,0,0,768.56,625.74Zm-9.17-1.26a.52.52,0,1,0,.37.15A.52.52,0,0,0,759.38,624.48Zm3,.74a.52.52,0,1,0,.37.15A.52.52,0,0,0,762.42,625.22Zm-8.72-1.78a.52.52,0,1,0,.37.15A.52.52,0,0,0,753.71,623.44Zm2.73.52a.52.52,0,1,0,.37.15A.52.52,0,0,0,756.44,624Zm-5.73-1.56a.52.52,0,1,0,.37.15A.52.52,0,0,0,750.71,622.4ZM784,624.18a.52.52,0,1,0,.37.15A.52.52,0,0,0,784,624.18Zm-6,1a.52.52,0,1,0,0,1,.52.52,0,0,0,0-1Zm-6.55.52a.52.52,0,1,0,.37.15A.52.52,0,0,0,771.39,625.74Zm-6,0a.52.52,0,1,0,.37.15A.52.52,0,0,0,765.43,625.74Z"/></g><g id="group_2" data-name="group 2"><path id="path_33" data-name="path 33" d="M792.88,624.22a.52.52,0,1,0,.37.15A.52.52,0,0,0,792.88,624.22Zm-2.64.74a.52.52,0,1,0,.37.15A.52.52,0,0,0,790.23,625ZM787,626a.52.52,0,1,0,.37.15A.52.52,0,0,0,787,626Zm-5.85,1.26a.52.52,0,1,0,.37.15A.52.52,0,0,0,781.12,627.26Zm-6.17.75a.52.52,0,1,0,.37.15A.52.52,0,0,0,774.95,628Zm-6.39.29a.52.52,0,1,0,.37.15A.52.52,0,0,0,768.56,628.3ZM759.38,627a.52.52,0,1,0,.37.15A.52.52,0,0,0,759.38,627Zm3,.74a.52.52,0,1,0,.37.15A.52.52,0,0,0,762.42,627.78ZM753.71,626a.52.52,0,1,0,.37.15A.52.52,0,0,0,753.71,626Zm2.73.52a.52.52,0,1,0,.37.15A.52.52,0,0,0,756.44,626.52ZM750.71,625a.52.52,0,1,0,.37.15A.52.52,0,0,0,750.71,625ZM784,626.74a.52.52,0,1,0,.37.15A.52.52,0,0,0,784,626.74Zm-6,1a.52.52,0,1,0,0,1,.52.52,0,0,0,0-1Zm-6.55.52a.52.52,0,1,0,.37.15A.52.52,0,0,0,771.39,628.3Zm-6,0a.52.52,0,1,0,.37.15A.52.52,0,0,0,765.43,628.3Z"/></g><g id="group_3" data-name="group 3"><path id="path_34" data-name="path 34" d="M792.88,626.78a.52.52,0,1,0,.37.15A.52.52,0,0,0,792.88,626.78Zm-2.64.74a.52.52,0,1,0,.37.15A.52.52,0,0,0,790.23,627.52Zm-3.26,1a.52.52,0,1,0,.37.89.52.52,0,0,0,0-.74A.52.52,0,0,0,787,628.56Zm-5.85,1.26a.52.52,0,1,0,.37.15A.52.52,0,0,0,781.12,629.82Zm-6.17.75a.52.52,0,1,0,.37.89.52.52,0,0,0-.37-.89Zm-6.39.29a.52.52,0,1,0,.37.15A.52.52,0,0,0,768.56,630.86Zm-9.17-1.26a.52.52,0,1,0,.37.15A.52.52,0,0,0,759.38,629.6Zm3,.74a.52.52,0,1,0,.37.15A.52.52,0,0,0,762.42,630.34Zm-8.72-1.78a.52.52,0,1,0,0,1,.52.52,0,0,0,0-1Zm2.73.52a.52.52,0,1,0,.31.1A.52.52,0,0,0,756.44,629.08Zm-5.73-1.56a.52.52,0,1,0,.37.15A.52.52,0,0,0,750.71,627.52ZM784,629.3a.52.52,0,1,0,.37.15A.52.52,0,0,0,784,629.3Zm-6,1a.52.52,0,1,0,0,1,.52.52,0,0,0,0-1Zm-6.55.52a.52.52,0,1,0,.37.15A.52.52,0,0,0,771.39,630.86Zm-6,0a.52.52,0,1,0,.37.15A.52.52,0,0,0,765.43,630.86Z"/></g><g id="group_4" data-name="group 4"><path id="path_35" data-name="path 35" d="M792.88,629.34a.52.52,0,0,0-.5.36.51.51,0,0,0,0,.32.52.52,0,0,0,.8.26.53.53,0,0,0,.19-.26.52.52,0,0,0,0-.32.53.53,0,0,0-.19-.26A.52.52,0,0,0,792.88,629.34Zm-2.64.74a.52.52,0,1,0,.37.15A.52.52,0,0,0,790.23,630.08Zm-3.26,1a.52.52,0,1,0,.31.1A.52.52,0,0,0,787,631.12Zm-5.85,1.26a.52.52,0,1,0,.37.15A.52.52,0,0,0,781.12,632.38Zm-6.17.75a.52.52,0,1,0,.37.15A.52.52,0,0,0,774.95,633.13Zm-6.39.29a.52.52,0,1,0,.37.15A.52.52,0,0,0,768.56,633.42Zm-9.17-1.26a.52.52,0,1,0,.37.15A.52.52,0,0,0,759.38,632.16Zm3,.74a.52.52,0,1,0,.37.15A.52.52,0,0,0,762.42,632.9Zm-8.72-1.78a.52.52,0,1,0,.31.94.51.51,0,0,0,.19-.26.52.52,0,0,0,0-.32.52.52,0,0,0-.5-.36Zm2.73.52a.52.52,0,1,0,.37.15A.52.52,0,0,0,756.44,631.64Zm-5.73-1.56a.52.52,0,1,0,.37.15A.52.52,0,0,0,750.71,630.08ZM784,631.86a.52.52,0,1,0,.31.1A.52.52,0,0,0,784,631.86Zm-6,1a.52.52,0,1,0,.37.15A.52.52,0,0,0,777.94,632.9Zm-6.55.52a.52.52,0,1,0,.37.15A.52.52,0,0,0,771.39,633.42Zm-6,0a.52.52,0,1,0,.37.15A.52.52,0,0,0,765.43,633.42Z"/></g><g id="group_5" data-name="group 5"><path id="path_36" data-name="path 36" d="M792.88,631.9a.52.52,0,0,0-.52.52.52.52,0,1,0,.89-.37A.52.52,0,0,0,792.88,631.9Zm-2.64.74a.52.52,0,1,0,.37.15A.52.52,0,0,0,790.23,632.64Zm-3.26,1a.52.52,0,1,0,.37.15A.52.52,0,0,0,787,633.68Zm-5.85,1.26a.52.52,0,1,0,.37.15A.52.52,0,0,0,781.12,634.94Zm-6.17.75a.52.52,0,1,0,.37.15A.52.52,0,0,0,774.95,635.69Zm-6.39.29a.52.52,0,1,0,.37.15A.52.52,0,0,0,768.56,636Zm-9.17-1.26a.52.52,0,1,0,.37.15A.52.52,0,0,0,759.38,634.72Zm3,.74a.52.52,0,1,0,.37.15A.52.52,0,0,0,762.42,635.46Zm-8.72-1.78a.52.52,0,1,0,.37.15A.52.52,0,0,0,753.71,633.68Zm2.73.52a.52.52,0,1,0,.37.15A.52.52,0,0,0,756.44,634.2Zm-5.73-1.56a.52.52,0,1,0,.37.15A.52.52,0,0,0,750.71,632.64ZM784,634.42a.52.52,0,1,0,.37.15A.52.52,0,0,0,784,634.42Zm-6,1a.52.52,0,1,0,.37.15A.52.52,0,0,0,777.94,635.46Zm-6.55.52a.52.52,0,1,0,.37.15A.52.52,0,0,0,771.39,636Zm-6,0a.52.52,0,1,0,.37.15A.52.52,0,0,0,765.43,636Z"/></g><g id="group_6" data-name="group 6"><path id="path_37" data-name="path 37" d="M792.88,634.46a.52.52,0,0,0-.52.52.52.52,0,1,0,.89-.37A.52.52,0,0,0,792.88,634.46Zm-2.64.74a.52.52,0,1,0,.37.15A.52.52,0,0,0,790.23,635.2Zm-3.26,1a.52.52,0,1,0,.37.15A.52.52,0,0,0,787,636.24Zm-5.85,1.26a.52.52,0,1,0,.37.15A.52.52,0,0,0,781.12,637.5Zm-6.17.75a.52.52,0,1,0,.37.15A.52.52,0,0,0,774.95,638.25Zm-6.39.29a.52.52,0,1,0,.37.15A.52.52,0,0,0,768.56,638.54Zm-9.17-1.26a.52.52,0,1,0,.37.15A.52.52,0,0,0,759.38,637.28Zm3,.74a.52.52,0,1,0,.37.15A.52.52,0,0,0,762.42,638Zm-8.72-1.78a.52.52,0,1,0,.37.15A.52.52,0,0,0,753.71,636.24Zm2.73.52a.52.52,0,1,0,.37.15A.52.52,0,0,0,756.44,636.76Zm-5.73-1.56a.52.52,0,1,0,.37.15A.52.52,0,0,0,750.71,635.2ZM784,637a.52.52,0,1,0,.37.15A.52.52,0,0,0,784,637Zm-6,1a.52.52,0,1,0,.37.15A.52.52,0,0,0,777.94,638Zm-6.55.52a.52.52,0,1,0,.37.15A.52.52,0,0,0,771.39,638.54Zm-6,0a.52.52,0,1,0,.37.15A.52.52,0,0,0,765.43,638.54Z"/></g><g id="group_7" data-name="group 7"><path id="path_38" data-name="path 38" d="M792.88,637a.52.52,0,0,0-.52.52.52.52,0,1,0,.89-.37A.52.52,0,0,0,792.88,637Zm-2.64.74a.52.52,0,1,0,.37.15A.52.52,0,0,0,790.23,637.76Zm-3.26,1a.52.52,0,1,0,.37.15A.52.52,0,0,0,787,638.8Zm-5.85,1.26a.52.52,0,1,0,.37.15A.52.52,0,0,0,781.12,640.06Zm-6.17.75a.52.52,0,1,0,.37.15A.52.52,0,0,0,774.95,640.81Zm-6.39.29a.52.52,0,1,0,.37.15A.52.52,0,0,0,768.56,641.1Zm-9.17-1.26a.52.52,0,1,0,.37.15A.52.52,0,0,0,759.38,639.84Zm3,.74a.52.52,0,1,0,.37.15A.52.52,0,0,0,762.42,640.58Zm-8.72-1.78a.52.52,0,1,0,.37.15A.52.52,0,0,0,753.71,638.8Zm2.73.52a.52.52,0,1,0,.37.15A.52.52,0,0,0,756.44,639.32Zm-5.73-1.56a.52.52,0,1,0,.37.15A.52.52,0,0,0,750.71,637.76ZM784,639.54a.52.52,0,1,0,.37.15A.52.52,0,0,0,784,639.54Zm-6,1a.52.52,0,1,0,0,1,.52.52,0,0,0,0-1Zm-6.55.52a.52.52,0,1,0,.37.15A.52.52,0,0,0,771.39,641.1Zm-6,0a.52.52,0,1,0,.37.15A.52.52,0,0,0,765.43,641.1Z"/></g><g id="group_8" data-name="group 8"><path id="path_39" data-name="path 39" d="M792.88,639.58a.52.52,0,0,0-.52.52.52.52,0,1,0,.89-.37A.52.52,0,0,0,792.88,639.58Zm-2.64.74a.52.52,0,1,0,.37.15A.52.52,0,0,0,790.23,640.32Zm-3.26,1a.52.52,0,1,0,.37.15A.52.52,0,0,0,787,641.36Zm-5.85,1.26a.52.52,0,1,0,.37.15A.52.52,0,0,0,781.12,642.62Zm-6.17.75a.52.52,0,1,0,.37.15A.52.52,0,0,0,774.95,643.37Zm-6.39.29a.52.52,0,1,0,.37.15A.52.52,0,0,0,768.56,643.66Zm-9.17-1.26a.52.52,0,1,0,.37.15A.52.52,0,0,0,759.38,642.4Zm3,.74a.52.52,0,1,0,.37.15A.52.52,0,0,0,762.42,643.14Zm-8.72-1.78a.52.52,0,1,0,.37.15A.52.52,0,0,0,753.71,641.36Zm2.73.52a.52.52,0,1,0,.37.15A.52.52,0,0,0,756.44,641.88Zm-5.73-1.56a.52.52,0,1,0,.37.15A.52.52,0,0,0,750.71,640.32ZM784,642.1a.52.52,0,1,0,0,1,.52.52,0,1,0,0-1Zm-6,1a.52.52,0,1,0,0,1,.52.52,0,0,0,0-1Zm-6.55.52a.52.52,0,1,0,.37.15A.52.52,0,0,0,771.39,643.66Zm-6,0a.52.52,0,1,0,.37.15A.52.52,0,0,0,765.43,643.66Z"/></g><g id="group_9" data-name="group 9"><path id="path_40" data-name="path 40" d="M792.88,642.15a.52.52,0,0,0-.52.52.52.52,0,1,0,.89-.37A.52.52,0,0,0,792.88,642.15Zm-2.64.74a.52.52,0,1,0,.37.15A.52.52,0,0,0,790.23,642.88Zm-3.26,1a.52.52,0,1,0,.37.15A.52.52,0,0,0,787,643.92Zm-5.85,1.26a.52.52,0,1,0,.37.15A.52.52,0,0,0,781.12,645.18Zm-6.17.75a.52.52,0,1,0,.37.15A.52.52,0,0,0,774.95,645.93Zm-6.39.29a.52.52,0,1,0,.37.15A.52.52,0,0,0,768.56,646.23ZM759.38,645a.52.52,0,1,0,.37.15A.52.52,0,0,0,759.38,645Zm3,.74a.52.52,0,1,0,.37.15A.52.52,0,0,0,762.42,645.71Zm-8.72-1.78a.52.52,0,1,0,0,1,.52.52,0,0,0,0-1Zm2.73.52a.52.52,0,1,0,.37.15A.52.52,0,0,0,756.44,644.45Zm-5.73-1.56a.52.52,0,1,0,.37.15A.52.52,0,0,0,750.71,642.88ZM784,644.66a.52.52,0,1,0,.37.15A.52.52,0,0,0,784,644.66Zm-6,1a.52.52,0,1,0,0,1,.52.52,0,1,0,0-1Zm-6.55.52a.52.52,0,1,0,.37.15A.52.52,0,0,0,771.39,646.23Zm-6,0a.52.52,0,1,0,.37.15A.52.52,0,0,0,765.43,646.23Z"/></g><g id="group_10" data-name="group 10"><path id="path_41" data-name="path 41" d="M792.88,644.71a.52.52,0,0,0-.52.52.52.52,0,1,0,.89-.37A.52.52,0,0,0,792.88,644.71Zm-2.64.74a.52.52,0,1,0,.37.15A.52.52,0,0,0,790.23,645.44Zm-3.26,1a.52.52,0,1,0,.37.89.52.52,0,0,0-.37-.89Zm-5.85,1.26a.52.52,0,1,0,.37.15A.52.52,0,0,0,781.12,647.75Zm-6.17.75a.52.52,0,1,0,.37.15A.52.52,0,0,0,774.95,648.49Zm-6.39.29a.52.52,0,1,0,.37.15A.52.52,0,0,0,768.56,648.79Zm-9.17-1.26a.52.52,0,1,0,.37.15A.52.52,0,0,0,759.38,647.53Zm3,.74a.52.52,0,1,0,.37.15A.52.52,0,0,0,762.42,648.27Zm-8.72-1.78a.52.52,0,1,0,0,1,.52.52,0,0,0,0-1Zm2.73.52a.52.52,0,1,0,.37.15A.52.52,0,0,0,756.44,647Zm-5.73-1.56a.52.52,0,1,0,.37.15A.52.52,0,0,0,750.71,645.44ZM784,647.23a.52.52,0,1,0,.37.15A.52.52,0,0,0,784,647.23Zm-6,1a.52.52,0,1,0,.37.89.52.52,0,0,0-.37-.89Zm-6.55.52a.52.52,0,1,0,.37.15A.52.52,0,0,0,771.39,648.79Zm-6,0a.52.52,0,1,0,.37.15A.52.52,0,0,0,765.43,648.79Z"/></g><g id="group_11" data-name="group 11"><path id="path_42" data-name="path 42" d="M792.88,647.27a.52.52,0,0,0-.52.52.52.52,0,1,0,.89-.37A.52.52,0,0,0,792.88,647.27Zm-2.64.74a.52.52,0,1,0,.37.15A.52.52,0,0,0,790.23,648ZM787,649a.52.52,0,1,0,.37.15A.52.52,0,0,0,787,649Zm-5.85,1.26a.52.52,0,1,0,.37.15A.52.52,0,0,0,781.12,650.31Zm-6.17.75a.52.52,0,1,0,.37.15A.52.52,0,0,0,774.95,651.05Zm-6.39.29a.52.52,0,1,0,.37.15A.52.52,0,0,0,768.56,651.35Zm-9.17-1.26a.52.52,0,1,0,.37.15A.52.52,0,0,0,759.38,650.09Zm3,.74a.52.52,0,1,0,.37.15A.52.52,0,0,0,762.42,650.83ZM753.71,649a.52.52,0,1,0,.37.15A.52.52,0,0,0,753.71,649Zm2.73.52a.52.52,0,1,0,0,1,.52.52,0,1,0,0-1ZM750.71,648a.52.52,0,1,0,.37.15A.52.52,0,0,0,750.71,648ZM784,649.79a.52.52,0,1,0,.37.15A.52.52,0,0,0,784,649.79Zm-6,1a.52.52,0,1,0,.37.89.52.52,0,0,0-.37-.89Zm-6.55.52a.52.52,0,1,0,.37.15A.52.52,0,0,0,771.39,651.35Zm-6,0a.52.52,0,1,0,.37.15A.52.52,0,0,0,765.43,651.35Z"/></g><g id="group_12" data-name="group 12"><path id="path_43" data-name="path 43" d="M792.88,649.83a.52.52,0,0,0-.52.52.52.52,0,1,0,.89-.37A.52.52,0,0,0,792.88,649.83Zm-2.64.74a.52.52,0,1,0,.37.15A.52.52,0,0,0,790.23,650.57Zm-3.26,1a.52.52,0,1,0,.37.15A.52.52,0,0,0,787,651.61Zm-5.85,1.26a.52.52,0,1,0,.37.15A.52.52,0,0,0,781.12,652.87Zm-6.17.75a.52.52,0,1,0,.37.15A.52.52,0,0,0,774.95,653.61Zm-6.39.29a.52.52,0,1,0,.37.15A.52.52,0,0,0,768.56,653.91Zm-9.17-1.26a.52.52,0,1,0,.37.15A.52.52,0,0,0,759.38,652.65Zm3,.74a.52.52,0,1,0,.37.15A.52.52,0,0,0,762.42,653.39Zm-8.72-1.78a.52.52,0,1,0,.37.15A.52.52,0,0,0,753.71,651.61Zm2.73.52a.52.52,0,1,0,0,1,.52.52,0,1,0,0-1Zm-5.73-1.56a.52.52,0,1,0,.37.15A.52.52,0,0,0,750.71,650.57ZM784,652.35a.52.52,0,1,0,.37.15A.52.52,0,0,0,784,652.35Zm-6,1a.52.52,0,1,0,.37.89.52.52,0,0,0-.37-.89Zm-6.55.52a.52.52,0,1,0,.37.15A.52.52,0,0,0,771.39,653.91Zm-6,0a.52.52,0,1,0,.37.15A.52.52,0,0,0,765.43,653.91Z"/></g><g id="group_13" data-name="group 13"><path id="path_44" data-name="path 44" d="M792.88,652.39a.52.52,0,0,0-.52.52.52.52,0,1,0,.89-.37A.52.52,0,0,0,792.88,652.39Zm-2.64.74a.52.52,0,1,0,.37.15A.52.52,0,0,0,790.23,653.13Zm-3.26,1a.52.52,0,1,0,.37.15A.52.52,0,0,0,787,654.17Zm-5.85,1.26a.52.52,0,1,0,.37.15A.52.52,0,0,0,781.12,655.43Zm-6.17.75a.52.52,0,1,0,.37.15A.52.52,0,0,0,774.95,656.18Zm-6.39.29a.52.52,0,1,0,.31.94.53.53,0,0,0,.19-.26.52.52,0,0,0-.5-.68Zm-9.17-1.26a.52.52,0,0,0-.52.52.52.52,0,0,0,1,0,.52.52,0,0,0-.52-.52Zm3,.74a.52.52,0,1,0,.37.15A.52.52,0,0,0,762.42,656Zm-8.72-1.78a.52.52,0,1,0,.37.15A.52.52,0,0,0,753.71,654.17Zm2.73.52a.52.52,0,1,0,.37.15A.52.52,0,0,0,756.44,654.69Zm-5.73-1.56a.52.52,0,1,0,.37.15A.52.52,0,0,0,750.71,653.13ZM784,654.91a.52.52,0,1,0,.37.15A.52.52,0,0,0,784,654.91Zm-6,1a.52.52,0,1,0,.37.89.52.52,0,0,0-.37-.89Zm-6.55.52a.52.52,0,1,0,.31.1A.52.52,0,0,0,771.39,656.47Zm-6,0a.52.52,0,0,0-.5.36.52.52,0,0,0,.19.58.52.52,0,0,0,.61,0,.52.52,0,0,0,0-.84A.52.52,0,0,0,765.43,656.47Z"/></g><g id="group_14" data-name="group 14"><path id="path_45" data-name="path 45" d="M792.88,655a.52.52,0,0,0-.52.52.52.52,0,1,0,.89-.37A.52.52,0,0,0,792.88,655Zm-2.64.74a.52.52,0,1,0,.37.15A.52.52,0,0,0,790.23,655.69Zm-3.26,1a.52.52,0,1,0,.37.15A.52.52,0,0,0,787,656.73ZM781.12,658a.52.52,0,1,0,.37.15A.52.52,0,0,0,781.12,658Zm-6.17.75a.52.52,0,1,0,.37.15A.52.52,0,0,0,774.95,658.74Zm-6.39.29a.52.52,0,1,0,.37.15A.52.52,0,0,0,768.56,659Zm-9.17-1.26a.52.52,0,1,0,.37.15A.52.52,0,0,0,759.38,657.77Zm3,.74a.52.52,0,1,0,.37.15A.52.52,0,0,0,762.42,658.51Zm-8.72-1.78a.52.52,0,1,0,.37.15A.52.52,0,0,0,753.71,656.73Zm2.73.52a.52.52,0,1,0,.37.15A.52.52,0,0,0,756.44,657.25Zm-5.73-1.56a.52.52,0,1,0,.37.15A.52.52,0,0,0,750.71,655.69ZM784,657.47a.52.52,0,1,0,.37.15A.52.52,0,0,0,784,657.47Zm-6,1a.52.52,0,1,0,.37.89.52.52,0,0,0-.37-.89Zm-6.55.52a.52.52,0,1,0,.37.15A.52.52,0,0,0,771.39,659Zm-6,0a.52.52,0,1,0,.37.15A.52.52,0,0,0,765.43,659Z"/></g><g id="group_15" data-name="group 15"><path id="path_46" data-name="path 46" d="M792.88,657.51a.52.52,0,0,0-.52.52.52.52,0,1,0,.89-.37A.52.52,0,0,0,792.88,657.51Zm-2.64.74a.52.52,0,1,0,.37.15A.52.52,0,0,0,790.23,658.25Zm-3.26,1a.52.52,0,0,0-.5.36.52.52,0,0,0,.8.58.51.51,0,0,0,.19-.26.52.52,0,0,0-.19-.58A.53.53,0,0,0,787,659.29Zm-5.85,1.26a.52.52,0,1,0,.37.15A.52.52,0,0,0,781.12,660.55Zm-6.17.75a.52.52,0,1,0,.37.15A.52.52,0,0,0,774.95,661.3Zm-6.39.29a.52.52,0,1,0,.37.15A.52.52,0,0,0,768.56,661.59Zm-9.17-1.26a.52.52,0,1,0,.37.15A.52.52,0,0,0,759.38,660.33Zm3,.74a.52.52,0,1,0,.37.15A.52.52,0,0,0,762.42,661.07Zm-8.72-1.78a.52.52,0,0,0-.5.36.52.52,0,0,0,.8.58.51.51,0,0,0,.19-.26.52.52,0,0,0-.5-.68Zm2.73.52a.52.52,0,1,0,.37.15A.52.52,0,0,0,756.44,659.81Zm-5.73-1.56a.52.52,0,1,0,.37.15A.52.52,0,0,0,750.71,658.25ZM784,660a.52.52,0,1,0,.37.15A.52.52,0,0,0,784,660Zm-6,1a.52.52,0,1,0,.37.89.52.52,0,0,0-.37-.89Zm-6.55.52a.52.52,0,1,0,.37.15A.52.52,0,0,0,771.39,661.59Zm-6,0a.52.52,0,1,0,.37.15A.52.52,0,0,0,765.43,661.59Z"/></g><g id="group_16" data-name="group 16"><path id="path_47" data-name="path 47" d="M792.88,660.07a.52.52,0,0,0-.52.52.52.52,0,1,0,.89-.37A.52.52,0,0,0,792.88,660.07Zm-2.64.74a.52.52,0,1,0,.37.15A.52.52,0,0,0,790.23,660.81Zm-3.26,1a.52.52,0,1,0,.37.15A.52.52,0,0,0,787,661.85Zm-5.85,1.26a.52.52,0,1,0,.37.15A.52.52,0,0,0,781.12,663.11Zm-6.17.75a.52.52,0,1,0,.37.15A.52.52,0,0,0,774.95,663.86Zm-6.39.29a.52.52,0,1,0,.37.15A.52.52,0,0,0,768.56,664.15Zm-9.17-1.26a.52.52,0,1,0,.37.15A.52.52,0,0,0,759.38,662.89Zm3,.74a.52.52,0,1,0,.37.15A.52.52,0,0,0,762.42,663.63Zm-8.72-1.78a.52.52,0,1,0,0,1,.52.52,0,0,0,0-1Zm2.73.52a.52.52,0,1,0,.37.15A.52.52,0,0,0,756.44,662.37Zm-5.73-1.56a.52.52,0,1,0,.37.15A.52.52,0,0,0,750.71,660.81ZM784,662.59a.52.52,0,1,0,.37.15A.52.52,0,0,0,784,662.59Zm-6,1a.52.52,0,1,0,.37.89.52.52,0,0,0-.37-.89Zm-6.55.52a.52.52,0,1,0,.37.15A.52.52,0,0,0,771.39,664.15Zm-6,0a.52.52,0,1,0,.37.15A.52.52,0,0,0,765.43,664.15Z"/></g><g id="group_17" data-name="group 17"><path id="path_48" data-name="path 48" d="M792.88,662.63a.52.52,0,0,0-.52.52.52.52,0,1,0,.89-.37A.52.52,0,0,0,792.88,662.63Zm-2.64.74a.52.52,0,1,0,.37.15A.52.52,0,0,0,790.23,663.37Zm-3.26,1a.52.52,0,1,0,.37.89.52.52,0,0,0-.37-.89Zm-5.85,1.26a.52.52,0,1,0,.37.15A.52.52,0,0,0,781.12,665.67Zm-6.17.75a.52.52,0,1,0,.37.15A.52.52,0,0,0,774.95,666.42Zm-6.39.29a.52.52,0,1,0,.37.15A.52.52,0,0,0,768.56,666.71Zm-9.17-1.26a.52.52,0,1,0,.37.15A.52.52,0,0,0,759.38,665.45Zm3,.74a.52.52,0,1,0,0,1,.52.52,0,1,0,0-1Zm-8.72-1.78a.52.52,0,1,0,0,1,.52.52,0,0,0,0-1Zm2.73.52a.52.52,0,1,0,.37.15A.52.52,0,0,0,756.44,664.93Zm-5.73-1.56a.52.52,0,1,0,.37.15A.52.52,0,0,0,750.71,663.37ZM784,665.15a.52.52,0,1,0,.37.15A.52.52,0,0,0,784,665.15Zm-6,1a.52.52,0,1,0,.37.15A.52.52,0,0,0,777.94,666.19Zm-6.55.52a.52.52,0,1,0,.37.15A.52.52,0,0,0,771.39,666.71Zm-6,0a.52.52,0,1,0,.37.15A.52.52,0,0,0,765.43,666.71Z"/></g><g id="group_18" data-name="group 18"><path id="path_49" data-name="path 49" d="M792.88,665.19a.52.52,0,0,0-.52.52.52.52,0,1,0,.89-.37A.52.52,0,0,0,792.88,665.19Zm-2.64.74a.52.52,0,1,0,.37.15A.52.52,0,0,0,790.23,665.93ZM787,667a.52.52,0,1,0,.37.15A.52.52,0,0,0,787,667Zm-5.85,1.26a.52.52,0,1,0,.37.15A.52.52,0,0,0,781.12,668.23Zm-6.17.75a.52.52,0,1,0,.37.15A.52.52,0,0,0,774.95,669Zm-6.39.29a.52.52,0,1,0,.37.15A.52.52,0,0,0,768.56,669.28ZM759.38,668a.52.52,0,1,0,.37.15A.52.52,0,0,0,759.38,668Zm3,.74a.52.52,0,0,0,0,1,.52.52,0,1,0,0-1ZM753.71,667a.52.52,0,1,0,.37.15A.52.52,0,0,0,753.71,667Zm2.73.52a.52.52,0,1,0,.37.15A.52.52,0,0,0,756.44,667.49Zm-5.73-1.56a.52.52,0,1,0,.37.15A.52.52,0,0,0,750.71,665.93ZM784,667.71a.52.52,0,1,0,.37.15A.52.52,0,0,0,784,667.71Zm-6,1a.52.52,0,1,0,.37.15A.52.52,0,0,0,777.94,668.76Zm-6.55.52a.52.52,0,1,0,.37.15A.52.52,0,0,0,771.39,669.28Zm-6,0a.52.52,0,1,0,.37.15A.52.52,0,0,0,765.43,669.28Z"/></g><g id="group_19" data-name="group 19"><path id="path_50" data-name="path 50" d="M792.88,667.76a.52.52,0,0,0-.52.52.52.52,0,1,0,.89-.37A.52.52,0,0,0,792.88,667.76Zm-2.64.74a.52.52,0,1,0,.37.15A.52.52,0,0,0,790.23,668.49Zm-3.26,1a.52.52,0,1,0,.37.15A.52.52,0,0,0,787,669.53Zm-5.85,1.26a.52.52,0,1,0,.37.15A.52.52,0,0,0,781.12,670.79Zm-6.17.75a.52.52,0,1,0,.37.15A.52.52,0,0,0,774.95,671.54Zm-6.39.29a.52.52,0,1,0,.37.15A.52.52,0,0,0,768.56,671.84Zm-9.17-1.26a.52.52,0,1,0,.37.15A.52.52,0,0,0,759.38,670.58Zm3,.74a.52.52,0,0,0,0,1,.52.52,0,1,0,0-1Zm-8.72-1.78a.52.52,0,1,0,.37.15A.52.52,0,0,0,753.71,669.53Zm2.73.52a.52.52,0,1,0,.37.15A.52.52,0,0,0,756.44,670.05Zm-5.73-1.56a.52.52,0,1,0,.37.15A.52.52,0,0,0,750.71,668.49ZM784,670.28a.52.52,0,1,0,.37.15A.52.52,0,0,0,784,670.28Zm-6,1a.52.52,0,1,0,.37.15A.52.52,0,0,0,777.94,671.32Zm-6.55.52a.52.52,0,1,0,.37.15A.52.52,0,0,0,771.39,671.84Zm-6,0a.52.52,0,1,0,.37.15A.52.52,0,0,0,765.43,671.84Z"/></g><g id="group_20" data-name="group 20"><path id="path_51" data-name="path 51" d="M792.88,670.32a.52.52,0,0,0-.52.52.52.52,0,1,0,.89-.37A.52.52,0,0,0,792.88,670.32Zm-2.64.74a.52.52,0,1,0,.37.15A.52.52,0,0,0,790.23,671.05Zm-3.26,1a.52.52,0,1,0,.37.15A.52.52,0,0,0,787,672.09Zm-5.85,1.26a.52.52,0,1,0,.37.15A.52.52,0,0,0,781.12,673.36Zm-6.17.75a.52.52,0,1,0,.37.15A.52.52,0,0,0,774.95,674.1Zm-6.39.29a.52.52,0,1,0,.37.15A.52.52,0,0,0,768.56,674.4Zm-9.17-1.26a.52.52,0,1,0,.37.15A.52.52,0,0,0,759.38,673.14Zm3,.74a.52.52,0,0,0,0,1,.52.52,0,1,0,0-1Zm-8.72-1.78a.52.52,0,1,0,.37.15A.52.52,0,0,0,753.71,672.09Zm2.73.52a.52.52,0,1,0,.37.15A.52.52,0,0,0,756.44,672.62Zm-5.73-1.56a.52.52,0,1,0,.37.15A.52.52,0,0,0,750.71,671.05ZM784,672.84a.52.52,0,1,0,.37.15A.52.52,0,0,0,784,672.84Zm-6,1a.52.52,0,1,0,.37.15A.52.52,0,0,0,777.94,673.88Zm-6.55.52a.52.52,0,1,0,.37.15A.52.52,0,0,0,771.39,674.4Zm-6,0a.52.52,0,1,0,.37.15A.52.52,0,0,0,765.43,674.4Z"/></g><g id="group_21" data-name="group 21"><path id="path_52" data-name="path 52" d="M792.88,672.88a.52.52,0,0,0-.52.52.52.52,0,1,0,.89-.37A.52.52,0,0,0,792.88,672.88Zm-2.64.74a.52.52,0,1,0,.37.15A.52.52,0,0,0,790.23,673.62Zm-3.26,1a.52.52,0,1,0,.37.15A.52.52,0,0,0,787,674.66Zm-5.85,1.26a.52.52,0,1,0,.37.15A.52.52,0,0,0,781.12,675.92Zm-6.17.75a.52.52,0,1,0,.37.15A.52.52,0,0,0,774.95,676.66Zm-6.39.29a.52.52,0,1,0,.37.15A.52.52,0,0,0,768.56,677Zm-9.17-1.26a.52.52,0,1,0,.37.15A.52.52,0,0,0,759.38,675.7Zm3,.74a.52.52,0,0,0,0,1,.52.52,0,1,0,0-1Zm-8.72-1.78a.52.52,0,1,0,.37.15A.52.52,0,0,0,753.71,674.66Zm2.73.52a.52.52,0,1,0,.37.15A.52.52,0,0,0,756.44,675.18Zm-5.73-1.56a.52.52,0,1,0,.37.15A.52.52,0,0,0,750.71,673.62ZM784,675.4a.52.52,0,1,0,.37.15A.52.52,0,0,0,784,675.4Zm-6,1a.52.52,0,1,0,.37.15A.52.52,0,0,0,777.94,676.44Zm-6.55.52a.52.52,0,1,0,.37.15A.52.52,0,0,0,771.39,677Zm-6,0a.52.52,0,1,0,.37.15A.52.52,0,0,0,765.43,677Z"/></g><g id="group_22" data-name="group 22"><path id="path_53" data-name="path 53" d="M792.88,675.44a.52.52,0,0,0-.52.52.52.52,0,1,0,.89-.37A.52.52,0,0,0,792.88,675.44Zm-2.64.74a.52.52,0,1,0,.37.15A.52.52,0,0,0,790.23,676.18Zm-3.26,1a.52.52,0,1,0,.37.89.52.52,0,0,0-.37-.89Zm-5.85,1.26a.52.52,0,1,0,.37.15A.52.52,0,0,0,781.12,678.48Zm-6.17.75a.52.52,0,1,0,.37.15A.52.52,0,0,0,774.95,679.22Zm-6.39.29a.52.52,0,1,0,.37.15A.52.52,0,0,0,768.56,679.52Zm-9.17-1.26a.52.52,0,1,0,.37.15A.52.52,0,0,0,759.38,678.26Zm3,.74a.52.52,0,0,0,0,1,.52.52,0,1,0,0-1Zm-8.72-1.78a.52.52,0,1,0,0,1,.52.52,0,0,0,0-1Zm2.73.52a.52.52,0,1,0,.37.15A.52.52,0,0,0,756.44,677.74Zm-5.73-1.56a.52.52,0,1,0,.37.15A.52.52,0,0,0,750.71,676.18ZM784,678a.52.52,0,1,0,.37.15A.52.52,0,0,0,784,678Zm-6,1a.52.52,0,1,0,.37.15A.52.52,0,0,0,777.94,679Zm-6.55.52a.52.52,0,1,0,.37.15A.52.52,0,0,0,771.39,679.52Zm-6,0a.52.52,0,1,0,.37.15A.52.52,0,0,0,765.43,679.52Z"/></g><g id="group_23" data-name="group 23"><path id="path_54" data-name="path 54" d="M792.88,678a.52.52,0,0,0-.52.52.52.52,0,1,0,.89-.37A.52.52,0,0,0,792.88,678Zm-2.64.74a.52.52,0,1,0,.37.15A.52.52,0,0,0,790.23,678.74Zm-3.26,1a.52.52,0,1,0,.37.89.52.52,0,0,0-.37-.89ZM781.12,681a.52.52,0,1,0,.37.15A.52.52,0,0,0,781.12,681Zm-6.17.75a.52.52,0,1,0,.37.15A.52.52,0,0,0,774.95,681.79Zm-6.39.29a.52.52,0,1,0,.37.15A.52.52,0,0,0,768.56,682.08Zm-9.17-1.26a.52.52,0,1,0,.37.15A.52.52,0,0,0,759.38,680.82Zm3,.74a.52.52,0,0,0,0,1,.52.52,0,1,0,0-1Zm-8.72-1.78a.52.52,0,1,0,0,1,.52.52,0,0,0,0-1Zm2.73.52a.52.52,0,1,0,.37.15A.52.52,0,0,0,756.44,680.3Zm-5.73-1.56a.52.52,0,1,0,.37.15A.52.52,0,0,0,750.71,678.74ZM784,680.52a.52.52,0,1,0,.37.15A.52.52,0,0,0,784,680.52Zm-6,1a.52.52,0,1,0,.37.15A.52.52,0,0,0,777.94,681.56Zm-6.55.52a.52.52,0,1,0,.37.15A.52.52,0,0,0,771.39,682.08Zm-6,0a.52.52,0,1,0,.37.15A.52.52,0,0,0,765.43,682.08Z"/></g></svg>